<?xml version="1.0" standalone="no"?>
<!DOCTYPE svg PUBLIC "-//W3C//DTD SVG 20010904//EN"
 "http://www.w3.org/TR/2001/REC-SVG-20010904/DTD/svg10.dtd">
<svg version="1.0" xmlns="http://www.w3.org/2000/svg"
 width="33.000000pt" height="33.000000pt" viewBox="0 0 33.000000 33.000000"
 preserveAspectRatio="xMidYMid meet">

<g transform="translate(0.000000,33.000000) scale(0.100000,-0.100000)"
fill="#000000" stroke="none">
<path d="M0 165 l0 -165 165 0 165 0 0 165 0 165 -165 0 -165 0 0 -165z m210
16 l-1 -66 -37 70 c-34 63 -37 72 -23 88 14 16 16 16 38 -5 20 -18 23 -31 23
-87z m-130 -23 l0 -42 -22 21 c-21 22 -21 23 -3 43 10 11 20 20 22 20 1 0 3
-19 3 -42z m192 -20 l-22 -22 0 44 0 44 22 -22 22 -22 -22 -22z m-87 -87 c-12
-12 -19 -13 -33 -5 -13 8 -18 27 -20 75 l-3 64 36 -59 c33 -54 35 -60 20 -75z"/>
</g>
</svg>
