<?xml version="1.0" standalone="no"?>
<!DOCTYPE svg PUBLIC "-//W3C//DTD SVG 20010904//EN"
 "http://www.w3.org/TR/2001/REC-SVG-20010904/DTD/svg10.dtd">
<svg version="1.0" xmlns="http://www.w3.org/2000/svg"
 width="99.000000pt" height="16.000000pt" viewBox="0 0 99.000000 16.000000"
 preserveAspectRatio="xMidYMid meet">

<g transform="translate(0.000000,16.000000) scale(0.100000,-0.100000)"
fill="#000000" stroke="none">
<path d="M133 75 c0 -22 2 -30 4 -17 2 12 2 30 0 40 -3 9 -5 -1 -4 -23z"/>
<path d="M166 103 c-10 -10 -7 -63 4 -63 6 0 10 7 10 17 0 15 1 15 18 0 10
-10 22 -17 25 -17 11 0 8 58 -3 65 -6 3 -10 -4 -10 -17 l-1 -23 -18 22 c-10
12 -21 19 -25 16z"/>
<path d="M277 103 c-4 -3 -7 -19 -7 -35 0 -25 3 -28 33 -27 23 1 26 3 10 6
-27 5 -31 23 -5 24 14 0 14 2 -3 9 -17 7 -17 9 -2 9 9 1 17 6 17 11 0 11 -33
14 -43 3z"/>
<path d="M340 103 c0 -5 5 -14 12 -21 8 -8 8 -15 -2 -27 -8 -10 -9 -15 -1 -15
6 0 11 5 11 12 0 9 3 9 12 0 17 -17 33 -15 19 2 -10 11 -10 20 0 38 11 21 11
22 -4 9 -14 -11 -20 -11 -32 -1 -8 7 -15 8 -15 3z"/>
<path d="M420 95 c-20 -24 -8 -50 25 -52 28 -2 28 -1 5 5 -36 11 -39 42 -5 42
15 0 24 4 20 10 -9 14 -31 12 -45 -5z"/>
<path d="M492 75 c0 -22 2 -32 5 -22 6 22 29 22 42 0 8 -14 10 -10 10 22 -1
22 -3 32 -6 23 -2 -10 -13 -18 -23 -18 -10 0 -21 8 -23 18 -3 9 -5 -1 -5 -23z"/>
<path d="M578 77 l-16 -33 34 0 c29 1 33 4 28 21 -3 11 -12 26 -18 33 -10 10
-15 6 -28 -21z m32 -7 c0 -5 -4 -10 -10 -10 -5 0 -10 5 -10 10 0 6 5 10 10 10
6 0 10 -4 10 -10z"/>
<path d="M651 75 c1 -33 2 -36 8 -15 l7 25 12 -22 c19 -34 32 -28 31 15 -1 23
-3 28 -6 15 -2 -13 -7 -23 -10 -23 -2 0 -13 10 -24 23 l-18 22 0 -40z"/>
<path d="M740 95 c-19 -23 -8 -50 23 -53 21 -3 27 1 27 15 0 14 -2 15 -9 4
-11 -17 -41 -7 -41 14 0 9 9 15 26 15 14 0 23 4 19 10 -9 14 -31 12 -45 -5z"/>
<path d="M810 75 c0 -32 3 -35 28 -34 l27 1 -25 8 -25 8 25 8 25 8 -25 7 c-24
7 -24 7 -2 8 30 1 28 21 -3 21 -22 0 -25 -4 -25 -35z"/>
</g>
</svg>
